<svg width="753" height="133" viewBox="0 0 753 133" fill="none" xmlns="http://www.w3.org/2000/svg">
<g filter="url(#filter0_d_25_227)">
<path d="M10.5 26.5H325L344.5 15H741.95C745.844 15 749 18.1564 749 22.05V101C749 105.418 745.418 109 741 109H650L619 129H4L10.5 26.5Z" fill="#70FE00" fill-opacity="0.22" shape-rendering="crispEdges"/>
<path d="M653 113L628.5 129H749V113H653Z" fill="#70FE00" fill-opacity="0.22" shape-rendering="crispEdges"/>
<path d="M225 4L200.5 21H321L351.5 4H225Z" fill="#70FE00" fill-opacity="0.22" shape-rendering="crispEdges"/>
<path d="M618.853 128.5H4.53271L10.9693 27H325H325.136L325.254 26.9307L344.636 15.5H741.95C745.568 15.5 748.5 18.4325 748.5 22.05V101C748.5 105.142 745.142 108.5 741 108.5H650H649.853L649.729 108.58L618.853 128.5ZM653.149 113.5H748.5V128.5H630.18L653.149 113.5ZM349.576 4.5L320.87 20.5H202.098L225.156 4.5H349.576Z" stroke="url(#paint0_linear_25_227)" shape-rendering="crispEdges"/>
</g>
<defs>
<filter id="filter0_d_25_227" x="0" y="0" width="753" height="133" filterUnits="userSpaceOnUse" color-interpolation-filters="sRGB">
<feFlood flood-opacity="0" result="BackgroundImageFix"/>
<feColorMatrix in="SourceAlpha" type="matrix" values="0 0 0 0 0 0 0 0 0 0 0 0 0 0 0 0 0 0 127 0" result="hardAlpha"/>
<feOffset/>
<feGaussianBlur stdDeviation="2"/>
<feComposite in2="hardAlpha" operator="out"/>
<feColorMatrix type="matrix" values="0 0 0 0 0.44 0 0 0 0 1 0 0 0 0 0 0 0 0 0.48 0"/>
<feBlend mode="normal" in2="BackgroundImageFix" result="effect1_dropShadow_25_227"/>
<feBlend mode="normal" in="SourceGraphic" in2="effect1_dropShadow_25_227" result="shape"/>
</filter>
<linearGradient id="paint0_linear_25_227" x1="376.5" y1="15" x2="377" y2="165.5" gradientUnits="userSpaceOnUse">
<stop stop-color="#8CF539"/>
<stop offset="1" stop-color="#8CF539" stop-opacity="0"/>
</linearGradient>
</defs>
</svg>
